<svg xmlns="http://www.w3.org/2000/svg" viewBox="0 0 512 512" width="512" height="512">
  <rect width="512" height="512" rx="104" fill="#da4a4a" />
  <path
    transform="translate(118 118) scale(11.5)"
    fill="#fff"
    d="M17 4a6 6 0 0 1 6 6v4a6 6 0 0 1-6 6H7a6 6 0 0 1-6-6v-4a6 6 0 0 1 6-6h10zm0 2H7a4 4 0 0 0-3.995 3.8L3 10v4a4 4 0 0 0 3.8 3.995L7 18h10a4 4 0 0 0 3.995-3.8L21 14v-4a4 4 0 0 0-3.8-3.995L17 6zm-7 3v2h2v2H9.999L10 15H8l-.001-2H6v-2h2V9h2zm8 4v2h-2v-2h2zm-2-4v2h-2V9h2z"
  />
</svg>
